<svg width="118" height="113" viewBox="0 0 118 113" fill="none" xmlns="http://www.w3.org/2000/svg">
<g filter="url(#filter0_dddd_5_420)">
<g clip-path="url(#clip0_5_420)">
<path d="M14 15C14 8.37258 19.3726 3 26 3H92C98.6274 3 104 8.37258 104 15V81C104 87.6274 98.6274 93 92 93H26C19.3726 93 14 87.6274 14 81V15Z" fill="url(#paint0_radial_5_420)"/>
<path d="M14 15C14 8.37258 19.3726 3 26 3H92C98.6274 3 104 8.37258 104 15V81C104 87.6274 98.6274 93 92 93H26C19.3726 93 14 87.6274 14 81V15Z" fill="black" fill-opacity="0.38"/>
<path d="M30 78H88V107H30V78Z" fill="url(#paint1_linear_5_420)"/>
<ellipse cx="59" cy="76.9722" rx="29" ry="8.97222" fill="url(#paint2_linear_5_420)"/>
<g opacity="0.39" filter="url(#filter1_f_5_420)">
<ellipse cx="59" cy="76.9722" rx="16" ry="4.75" fill="url(#paint3_linear_5_420)"/>
</g>
<path d="M66.3828 14C65.9298 14 65.5625 14.3673 65.5625 14.8203V18.5938C65.5625 19.0467 65.9298 19.4141 66.3828 19.4141C66.8358 19.4141 67.2031 19.0467 67.2031 18.5938V14.8203C67.2031 14.3673 66.8358 14 66.3828 14ZM47.5156 39.5938C47.0628 39.5938 46.6953 39.9613 46.6953 40.4141C46.6953 40.8669 47.0628 41.2344 47.5156 41.2344C47.9684 41.2344 48.3359 40.8669 48.3359 40.4141C48.3359 39.9613 47.9684 39.5938 47.5156 39.5938Z" fill="url(#paint4_linear_5_420)"/>
<path d="M77.8672 37.9531C77.8672 36.1438 76.3952 34.6719 74.5859 34.6719H68.4621C69.4102 32.2435 69.7939 29.3852 69.7199 26.8408C69.7058 26.3553 69.6872 26.0745 69.662 25.8977C69.6196 24.1253 68.1642 22.6953 66.3828 22.6953C64.5735 22.6953 63.1016 24.1673 63.1016 25.9766V26.7969C63.1016 31.985 56.4395 34.9 51.4118 36.15C51.0316 35.281 50.1639 34.6719 49.1562 34.6719H40.9531C40.5001 34.6719 40.1328 35.0392 40.1328 35.4922V55.1797C40.1328 55.6327 40.5001 56 40.9531 56H49.1562C50.1572 56 51.0199 55.399 51.404 54.5391C51.7907 54.6385 52.1772 54.7388 52.5635 54.84C55.4276 55.588 57.0053 56 60.8424 56H69.6641C71.4733 56 72.9453 54.528 72.9453 52.7188C72.9461 52.0689 72.7527 51.4337 72.39 50.8945C73.6572 50.4513 74.5859 49.2405 74.5859 47.7969C74.5859 47.1247 74.3861 46.4951 74.0367 45.9707C75.2983 45.5267 76.2266 44.3188 76.2266 42.875C76.2273 42.2252 76.0339 41.59 75.6712 41.0508C76.9384 40.6076 77.8672 39.3968 77.8672 37.9531ZM49.9766 53.5391C49.9766 53.9914 49.6086 54.3594 49.1562 54.3594H41.7734V36.3125H49.1562C49.6086 36.3125 49.9766 36.6805 49.9766 37.1328V53.5391ZM74.5859 39.5938H70.4844C70.0314 39.5938 69.6641 39.9611 69.6641 40.4141C69.6641 40.867 70.0314 41.2344 70.4844 41.2344H72.9453C73.85 41.2344 74.5859 41.9704 74.5859 42.875C74.5859 43.7811 73.8514 44.5156 72.9453 44.5156H68.8438C68.3908 44.5156 68.0234 44.883 68.0234 45.3359C68.0234 45.7889 68.3908 46.1562 68.8438 46.1562H71.3047C72.1986 46.1562 72.9453 46.8703 72.9453 47.7969C72.9453 48.703 72.2108 49.4375 71.3047 49.4375H67.2031C66.7501 49.4375 66.3828 49.8048 66.3828 50.2578C66.3828 50.7108 66.7501 51.0781 67.2031 51.0781H69.6641C70.5687 51.0781 71.3047 51.8141 71.3047 52.7188C71.3047 53.6234 70.5687 54.3594 69.6641 54.3594H60.8424C57.2161 54.3594 55.7997 53.9895 52.9781 53.2526C52.5248 53.1338 52.0712 53.0164 51.6172 52.9003V37.7911C57.5536 36.3771 64.7422 32.9255 64.7422 26.7969V25.9766C64.7422 25.0719 65.4782 24.3359 66.3828 24.3359C67.2858 24.3359 68.0217 25.0708 68.0234 25.974V25.9766C68.0234 26.3331 68.4684 30.7084 66.6842 34.6719H63.9219C63.4689 34.6719 63.1016 35.0392 63.1016 35.4922C63.1016 35.9452 63.4689 36.3125 63.9219 36.3125H74.5859C75.4906 36.3125 76.2266 37.0485 76.2266 37.9531C76.2266 38.8592 75.4921 39.5938 74.5859 39.5938Z" fill="url(#paint5_linear_5_420)"/>
<path d="M47.5156 42.8749C47.0626 42.8749 46.6953 43.2423 46.6953 43.6953V50.2578C46.6953 50.7107 47.0626 51.0781 47.5156 51.0781C47.9686 51.0781 48.3359 50.7107 48.3359 50.2578V43.6953C48.3359 43.2423 47.9686 42.8749 47.5156 42.8749ZM59.8203 24.3359H56.5391C56.0861 24.3359 55.7188 24.7032 55.7188 25.1562C55.7188 25.6092 56.0861 25.9765 56.5391 25.9765H59.8203C60.2733 25.9765 60.6406 25.6092 60.6406 25.1562C60.6406 24.7032 60.2733 24.3359 59.8203 24.3359ZM76.2266 24.3359H72.9453C72.4923 24.3359 72.125 24.7032 72.125 25.1562C72.125 25.6092 72.4923 25.9765 72.9453 25.9765H76.2266C76.6795 25.9765 77.0469 25.6092 77.0469 25.1562C77.0469 24.7032 76.6795 24.3359 76.2266 24.3359ZM73.9232 17.6158C73.6028 17.2955 73.0835 17.2955 72.763 17.6158L70.4433 19.9356C70.1229 20.2559 70.1229 20.7753 70.4433 21.0957C70.7638 21.4161 71.2829 21.416 71.6034 21.0957L73.9232 18.776C74.2435 18.4556 74.2435 17.9362 73.9232 17.6158ZM62.3223 19.9356L60.0026 17.6158C59.6822 17.2955 59.1629 17.2955 58.8424 17.6158C58.5221 17.9361 58.5221 18.4556 58.8424 18.776L61.1622 21.0957C61.4828 21.4161 62.0019 21.416 62.3223 21.0957C62.6427 20.7754 62.6427 20.256 62.3223 19.9356Z" fill="url(#paint6_linear_5_420)"/>
</g>
<path d="M26 3.5H92C98.3513 3.5 103.5 8.64873 103.5 15V81C103.5 87.3513 98.3513 92.5 92 92.5H26C19.6487 92.5 14.5 87.3513 14.5 81V15C14.5 8.64873 19.6487 3.5 26 3.5Z" stroke="url(#paint7_radial_5_420)"/>
<path d="M26 3.5H92C98.3513 3.5 103.5 8.64873 103.5 15V81C103.5 87.3513 98.3513 92.5 92 92.5H26C19.6487 92.5 14.5 87.3513 14.5 81V15C14.5 8.64873 19.6487 3.5 26 3.5Z" stroke="white" stroke-opacity="0.06"/>
</g>
<defs>
<filter id="filter0_dddd_5_420" x="0" y="0" width="118" height="141" filterUnits="userSpaceOnUse" color-interpolation-filters="sRGB">
<feFlood flood-opacity="0" result="BackgroundImageFix"/>
<feColorMatrix in="SourceAlpha" type="matrix" values="0 0 0 0 0 0 0 0 0 0 0 0 0 0 0 0 0 0 127 0" result="hardAlpha"/>
<feOffset dy="2"/>
<feGaussianBlur stdDeviation="2.5"/>
<feColorMatrix type="matrix" values="0 0 0 0 0.117647 0 0 0 0 0.0980392 0 0 0 0 0.14902 0 0 0 0.1 0"/>
<feBlend mode="normal" in2="BackgroundImageFix" result="effect1_dropShadow_5_420"/>
<feColorMatrix in="SourceAlpha" type="matrix" values="0 0 0 0 0 0 0 0 0 0 0 0 0 0 0 0 0 0 127 0" result="hardAlpha"/>
<feOffset dy="8"/>
<feGaussianBlur stdDeviation="4"/>
<feColorMatrix type="matrix" values="0 0 0 0 0.117647 0 0 0 0 0.0980392 0 0 0 0 0.14902 0 0 0 0.09 0"/>
<feBlend mode="normal" in2="effect1_dropShadow_5_420" result="effect2_dropShadow_5_420"/>
<feColorMatrix in="SourceAlpha" type="matrix" values="0 0 0 0 0 0 0 0 0 0 0 0 0 0 0 0 0 0 127 0" result="hardAlpha"/>
<feOffset dy="19"/>
<feGaussianBlur stdDeviation="5.5"/>
<feColorMatrix type="matrix" values="0 0 0 0 0.117647 0 0 0 0 0.0980392 0 0 0 0 0.14902 0 0 0 0.05 0"/>
<feBlend mode="normal" in2="effect2_dropShadow_5_420" result="effect3_dropShadow_5_420"/>
<feColorMatrix in="SourceAlpha" type="matrix" values="0 0 0 0 0 0 0 0 0 0 0 0 0 0 0 0 0 0 127 0" result="hardAlpha"/>
<feOffset dy="34"/>
<feGaussianBlur stdDeviation="7"/>
<feColorMatrix type="matrix" values="0 0 0 0 0.117647 0 0 0 0 0.0980392 0 0 0 0 0.14902 0 0 0 0.01 0"/>
<feBlend mode="normal" in2="effect3_dropShadow_5_420" result="effect4_dropShadow_5_420"/>
<feBlend mode="normal" in="SourceGraphic" in2="effect4_dropShadow_5_420" result="shape"/>
</filter>
<filter id="filter1_f_5_420" x="36.6" y="65.8222" width="44.8" height="22.3" filterUnits="userSpaceOnUse" color-interpolation-filters="sRGB">
<feFlood flood-opacity="0" result="BackgroundImageFix"/>
<feBlend mode="normal" in="SourceGraphic" in2="BackgroundImageFix" result="shape"/>
<feGaussianBlur stdDeviation="3.2" result="effect1_foregroundBlur_5_420"/>
</filter>
<radialGradient id="paint0_radial_5_420" cx="0" cy="0" r="1" gradientTransform="matrix(-61.0509 -59.7273 27.2338 -100.814 120.051 93)" gradientUnits="userSpaceOnUse">
<stop stop-color="#EC4899" stop-opacity="0.52"/>
<stop offset="1" stop-opacity="0"/>
</radialGradient>
<linearGradient id="paint1_linear_5_420" x1="59" y1="86.2857" x2="59" y2="100.132" gradientUnits="userSpaceOnUse">
<stop stop-color="#7B2B52" stop-opacity="0.52"/>
<stop offset="1" stop-color="#EC4899" stop-opacity="0"/>
</linearGradient>
<linearGradient id="paint2_linear_5_420" x1="32.175" y1="84.9351" x2="36.5276" y2="54.0677" gradientUnits="userSpaceOnUse">
<stop stop-color="#EC4899"/>
<stop offset="1" stop-color="#FFA01B"/>
</linearGradient>
<linearGradient id="paint3_linear_5_420" x1="43" y1="78.1597" x2="75.0502" y2="77.3316" gradientUnits="userSpaceOnUse">
<stop stop-color="#3D1428"/>
<stop offset="1" stop-color="#4B152F"/>
</linearGradient>
<linearGradient id="paint4_linear_5_420" x1="60.3255" y1="28.3339" x2="73.0753" y2="28.5541" gradientUnits="userSpaceOnUse">
<stop stop-color="#EC4899"/>
<stop offset="1" stop-color="#FFA01B"/>
</linearGradient>
<linearGradient id="paint5_linear_5_420" x1="65.2124" y1="40.2241" x2="88.6632" y2="40.8336" gradientUnits="userSpaceOnUse">
<stop stop-color="#EC4899"/>
<stop offset="1" stop-color="#FFA01B"/>
</linearGradient>
<linearGradient id="paint6_linear_5_420" x1="66.868" y1="35.1137" x2="85.7353" y2="35.5035" gradientUnits="userSpaceOnUse">
<stop stop-color="#EC4899"/>
<stop offset="1" stop-color="#FFA01B"/>
</linearGradient>
<radialGradient id="paint7_radial_5_420" cx="0" cy="0" r="1" gradientTransform="matrix(-19.4904 -38.7273 38.7273 -70.5851 104.86 94.9091)" gradientUnits="userSpaceOnUse">
<stop stop-color="#EC4899"/>
<stop offset="1" stop-color="#999999" stop-opacity="0"/>
</radialGradient>
<clipPath id="clip0_5_420">
<path d="M14 15C14 8.37258 19.3726 3 26 3H92C98.6274 3 104 8.37258 104 15V81C104 87.6274 98.6274 93 92 93H26C19.3726 93 14 87.6274 14 81V15Z" fill="white"/>
</clipPath>
</defs>
</svg>
