<svg width="118" height="113" viewBox="0 0 118 113" fill="none" xmlns="http://www.w3.org/2000/svg">
<g filter="url(#filter0_dddd_5_418)">
<g clip-path="url(#clip0_5_418)">
<path d="M14 15C14 8.37258 19.3726 3 26 3H92C98.6274 3 104 8.37258 104 15V81C104 87.6274 98.6274 93 92 93H26C19.3726 93 14 87.6274 14 81V15Z" fill="url(#paint0_radial_5_418)"/>
<path d="M14 15C14 8.37258 19.3726 3 26 3H92C98.6274 3 104 8.37258 104 15V81C104 87.6274 98.6274 93 92 93H26C19.3726 93 14 87.6274 14 81V15Z" fill="black" fill-opacity="0.38"/>
<path d="M30 78H88V101H30V78Z" fill="url(#paint1_linear_5_418)"/>
<ellipse cx="59" cy="76.9722" rx="29" ry="8.97222" fill="url(#paint2_linear_5_418)"/>
<g opacity="0.39" filter="url(#filter1_f_5_418)">
<ellipse cx="59" cy="76.9722" rx="16" ry="4.75" fill="url(#paint3_linear_5_418)"/>
</g>
<path d="M58.2578 59.7422C58.7374 59.9205 59.265 59.9205 59.7445 59.7422C69.1164 56.3203 74.8024 49.6274 76.6492 39.8078C77.3711 34.5469 76.811 29.4906 76.9844 24.3727C77.0123 24.1543 76.9941 23.9324 76.931 23.7215C76.8678 23.5105 76.7611 23.3152 76.6178 23.148C76.4744 22.9809 76.2976 22.8457 76.0988 22.7512C75.8999 22.6566 75.6834 22.6049 75.4633 22.5992C70.3875 21.9703 65.4539 20.0133 60.3781 16.6149C59.9937 16.2863 59.5046 16.106 58.9989 16.1063C58.4933 16.1065 58.0044 16.2875 57.6203 16.6164C52.5461 20.0133 47.6125 21.9703 42.5445 22.5984C42.324 22.6036 42.1069 22.655 41.9074 22.7493C41.7079 22.8435 41.5304 22.9786 41.3863 23.1457C41.2422 23.3128 41.1348 23.5083 41.071 23.7195C41.0071 23.9307 40.9883 24.1529 41.0156 24.3719C41.0813 26.1453 41.0469 27.925 41.0117 29.8094C39.9789 43.2453 44.8047 54.9906 58.2578 59.7422ZM42.5742 29.8391C42.6086 28.0172 42.6445 26.1328 42.5774 24.3234C42.5766 24.1524 42.5594 24.1727 42.7289 24.1508C48.0524 23.4914 53.2078 21.4516 58.4875 17.9164C58.943 17.6133 59.0578 17.6141 59.5109 17.9156C64.7922 21.4516 69.9477 23.4914 75.2797 24.1516C75.4352 24.1649 75.4266 24.1602 75.4219 24.3203C75.2461 29.4149 75.8024 34.4211 75.107 39.5594C73.3649 48.7125 67.7961 55.6086 58.7914 58.275C45.9547 53.7164 41.5922 42.6149 42.5742 29.8391Z" fill="url(#paint4_linear_5_418)"/>
<path d="M64.7078 52.7813C64.8368 52.9434 65.0249 53.0476 65.2308 53.0711C65.4366 53.0945 65.6434 53.0352 65.8055 52.9063C68.5654 50.702 70.7105 47.8234 72.0336 44.5485C72.1127 44.3569 72.1124 44.1418 72.0328 43.9504C71.9533 43.7591 71.801 43.6072 71.6094 43.5282C71.4178 43.4491 71.2027 43.4494 71.0114 43.5289C70.82 43.6085 70.6681 43.7608 70.5891 43.9524C69.3764 46.9872 67.3915 49.6524 64.8313 51.6836C64.6694 51.8128 64.5655 52.0011 64.5423 52.2069C64.5192 52.4127 64.5787 52.6193 64.7078 52.7813ZM44.875 32.5313C44.9777 32.5327 45.0796 32.5139 45.175 32.4759C45.2704 32.438 45.3574 32.3815 45.431 32.3099C45.5045 32.2383 45.5633 32.1529 45.6038 32.0586C45.6443 31.9642 45.6659 31.8628 45.6672 31.7602C45.6883 30.1258 45.7352 28.4758 45.7399 26.8196C48.2559 26.2982 50.7102 25.5142 53.0625 24.4805C53.246 24.3936 53.3885 24.2386 53.4597 24.0485C53.5309 23.8583 53.5252 23.6479 53.444 23.4618C53.3627 23.2758 53.2122 23.1286 53.0244 23.0516C52.8365 22.9746 52.626 22.9737 52.4375 23.0492C49.9958 24.1246 47.4387 24.916 44.8164 25.4078C44.636 25.4408 44.473 25.5363 44.3559 25.6774C44.2388 25.8185 44.175 25.9963 44.1758 26.1797C44.1828 27.4078 44.1594 28.6367 44.1367 29.868C44.2539 30.7196 43.6172 32.3867 44.875 32.5313ZM52 41.0297C52.1496 41.2772 52.3608 41.4817 52.6131 41.6231C52.8653 41.7646 53.1499 41.8382 53.4391 41.8367H57.436V46.468C57.4364 46.8463 57.564 47.2136 57.7982 47.5107C58.0325 47.8078 58.3598 48.0176 58.7275 48.1064C59.0953 48.1951 59.4823 48.1577 59.8262 48.0002C60.1702 47.8426 60.4513 47.574 60.6242 47.2375L66.0617 36.6188C66.1904 36.3614 66.2515 36.0754 66.2393 35.7879C66.227 35.5004 66.1419 35.2207 65.9918 34.9752C65.8417 34.7296 65.6316 34.5263 65.3813 34.3842C65.131 34.2422 64.8487 34.1662 64.561 34.1633H60.5625V29.5313C60.5617 29.1532 60.434 28.7864 60.1998 28.4895C59.9656 28.1927 59.6386 27.9832 59.2711 27.8944C58.9035 27.8057 58.5169 27.843 58.1731 28.0002C57.8293 28.1575 57.5482 28.4257 57.375 28.7617L51.9375 39.3805C51.8044 39.6371 51.7401 39.9239 51.7509 40.2129C51.7617 40.5018 51.8473 40.783 51.9992 41.0289L52 41.0297ZM58.7664 29.475C58.7709 29.4613 58.7782 29.4486 58.7878 29.4379C58.7975 29.4271 58.8092 29.4184 58.8223 29.4124C58.8355 29.4064 58.8497 29.4031 58.8642 29.4029C58.8786 29.4026 58.8929 29.4054 58.9063 29.411C58.9206 29.4124 58.9344 29.4167 58.947 29.4236C58.9596 29.4306 58.9706 29.44 58.9794 29.4513C58.9883 29.4626 58.9947 29.4756 58.9984 29.4895C59.0021 29.5034 59.0029 29.5178 59.0008 29.5321V34.9446C59.0008 35.1518 59.0831 35.3505 59.2296 35.497C59.3761 35.6435 59.5749 35.7258 59.7821 35.7258H64.561C64.5821 35.7261 64.6028 35.7318 64.6211 35.7422C64.6394 35.7527 64.6548 35.7676 64.6658 35.7857C64.6768 35.8037 64.6831 35.8242 64.684 35.8453C64.6849 35.8664 64.6805 35.8874 64.6711 35.9063L59.2344 46.525C59.2216 46.5497 59.2009 46.5693 59.1756 46.5807C59.1503 46.5922 59.1219 46.5949 59.0949 46.5883C59.0679 46.5817 59.0439 46.5663 59.0267 46.5445C59.0095 46.5227 59.0001 46.4958 59 46.468V41.0555C59 40.8483 58.9177 40.6496 58.7712 40.5031C58.6247 40.3566 58.426 40.2742 58.2188 40.2742H53.4399C53.4188 40.2739 53.3981 40.2683 53.3797 40.2578C53.3614 40.2473 53.346 40.2324 53.335 40.2144C53.324 40.1964 53.3178 40.1759 53.3168 40.1548C53.3159 40.1337 53.3203 40.1127 53.3297 40.0938L58.7664 29.475Z" fill="url(#paint5_linear_5_418)"/>
</g>
<path d="M26 3.5H92C98.3513 3.5 103.5 8.64873 103.5 15V81C103.5 87.3513 98.3513 92.5 92 92.5H26C19.6487 92.5 14.5 87.3513 14.5 81V15C14.5 8.64873 19.6487 3.5 26 3.5Z" stroke="url(#paint6_radial_5_418)"/>
<path d="M26 3.5H92C98.3513 3.5 103.5 8.64873 103.5 15V81C103.5 87.3513 98.3513 92.5 92 92.5H26C19.6487 92.5 14.5 87.3513 14.5 81V15C14.5 8.64873 19.6487 3.5 26 3.5Z" stroke="white" stroke-opacity="0.06"/>
</g>
<defs>
<filter id="filter0_dddd_5_418" x="0" y="0" width="118" height="141" filterUnits="userSpaceOnUse" color-interpolation-filters="sRGB">
<feFlood flood-opacity="0" result="BackgroundImageFix"/>
<feColorMatrix in="SourceAlpha" type="matrix" values="0 0 0 0 0 0 0 0 0 0 0 0 0 0 0 0 0 0 127 0" result="hardAlpha"/>
<feOffset dy="2"/>
<feGaussianBlur stdDeviation="2.5"/>
<feColorMatrix type="matrix" values="0 0 0 0 0.117647 0 0 0 0 0.0980392 0 0 0 0 0.14902 0 0 0 0.1 0"/>
<feBlend mode="normal" in2="BackgroundImageFix" result="effect1_dropShadow_5_418"/>
<feColorMatrix in="SourceAlpha" type="matrix" values="0 0 0 0 0 0 0 0 0 0 0 0 0 0 0 0 0 0 127 0" result="hardAlpha"/>
<feOffset dy="8"/>
<feGaussianBlur stdDeviation="4"/>
<feColorMatrix type="matrix" values="0 0 0 0 0.117647 0 0 0 0 0.0980392 0 0 0 0 0.14902 0 0 0 0.09 0"/>
<feBlend mode="normal" in2="effect1_dropShadow_5_418" result="effect2_dropShadow_5_418"/>
<feColorMatrix in="SourceAlpha" type="matrix" values="0 0 0 0 0 0 0 0 0 0 0 0 0 0 0 0 0 0 127 0" result="hardAlpha"/>
<feOffset dy="19"/>
<feGaussianBlur stdDeviation="5.5"/>
<feColorMatrix type="matrix" values="0 0 0 0 0.117647 0 0 0 0 0.0980392 0 0 0 0 0.14902 0 0 0 0.05 0"/>
<feBlend mode="normal" in2="effect2_dropShadow_5_418" result="effect3_dropShadow_5_418"/>
<feColorMatrix in="SourceAlpha" type="matrix" values="0 0 0 0 0 0 0 0 0 0 0 0 0 0 0 0 0 0 127 0" result="hardAlpha"/>
<feOffset dy="34"/>
<feGaussianBlur stdDeviation="7"/>
<feColorMatrix type="matrix" values="0 0 0 0 0.117647 0 0 0 0 0.0980392 0 0 0 0 0.14902 0 0 0 0.01 0"/>
<feBlend mode="normal" in2="effect3_dropShadow_5_418" result="effect4_dropShadow_5_418"/>
<feBlend mode="normal" in="SourceGraphic" in2="effect4_dropShadow_5_418" result="shape"/>
</filter>
<filter id="filter1_f_5_418" x="36.6" y="65.8222" width="44.8" height="22.3" filterUnits="userSpaceOnUse" color-interpolation-filters="sRGB">
<feFlood flood-opacity="0" result="BackgroundImageFix"/>
<feBlend mode="normal" in="SourceGraphic" in2="BackgroundImageFix" result="shape"/>
<feGaussianBlur stdDeviation="3.2" result="effect1_foregroundBlur_5_418"/>
</filter>
<radialGradient id="paint0_radial_5_418" cx="0" cy="0" r="1" gradientTransform="matrix(-61.0509 -59.7273 27.2338 -100.814 120.051 93)" gradientUnits="userSpaceOnUse">
<stop stop-color="#EC4899" stop-opacity="0.52"/>
<stop offset="1" stop-opacity="0"/>
</radialGradient>
<linearGradient id="paint1_linear_5_418" x1="59" y1="84.5714" x2="59" y2="95.5526" gradientUnits="userSpaceOnUse">
<stop stop-color="#7B2B52" stop-opacity="0.52"/>
<stop offset="1" stop-color="#EC4899" stop-opacity="0"/>
</linearGradient>
<linearGradient id="paint2_linear_5_418" x1="32.175" y1="84.9351" x2="36.5276" y2="54.0677" gradientUnits="userSpaceOnUse">
<stop stop-color="#EC4899"/>
<stop offset="1" stop-color="#FFA01B"/>
</linearGradient>
<linearGradient id="paint3_linear_5_418" x1="43" y1="78.1597" x2="75.0502" y2="77.3316" gradientUnits="userSpaceOnUse">
<stop stop-color="#3D1428"/>
<stop offset="1" stop-color="#4B152F"/>
</linearGradient>
<linearGradient id="paint4_linear_5_418" x1="64.9053" y1="39.1429" x2="87.3802" y2="39.5688" gradientUnits="userSpaceOnUse">
<stop stop-color="#EC4899"/>
<stop offset="1" stop-color="#FFA01B"/>
</linearGradient>
<linearGradient id="paint5_linear_5_418" x1="62.6974" y1="38.8263" x2="80.1118" y2="39.1984" gradientUnits="userSpaceOnUse">
<stop stop-color="#EC4899"/>
<stop offset="1" stop-color="#FFA01B"/>
</linearGradient>
<radialGradient id="paint6_radial_5_418" cx="0" cy="0" r="1" gradientTransform="matrix(-19.4904 -38.7273 38.7273 -70.5851 104.86 94.9091)" gradientUnits="userSpaceOnUse">
<stop stop-color="#EC4899"/>
<stop offset="1" stop-color="#999999" stop-opacity="0"/>
</radialGradient>
<clipPath id="clip0_5_418">
<path d="M14 15C14 8.37258 19.3726 3 26 3H92C98.6274 3 104 8.37258 104 15V81C104 87.6274 98.6274 93 92 93H26C19.3726 93 14 87.6274 14 81V15Z" fill="white"/>
</clipPath>
</defs>
</svg>
