<svg width="17" height="16" viewBox="0 0 17 16" fill="none" xmlns="http://www.w3.org/2000/svg">
<path d="M7.44666 0.56105C7.81212 -0.186971 8.87818 -0.186972 9.24365 0.561049L11.0334 4.22428C11.1791 4.52254 11.4634 4.72904 11.7921 4.77547L15.8291 5.34564C16.6534 5.46207 16.9828 6.47595 16.3844 7.05468L13.4535 9.88885C13.2149 10.1196 13.1063 10.4537 13.1637 10.7807L13.869 14.7963C14.013 15.6163 13.1505 16.2429 12.4152 15.8526L8.81402 13.9409C8.52082 13.7853 8.16949 13.7853 7.87628 13.9409L4.27514 15.8526C3.5398 16.2429 2.67734 15.6163 2.82134 14.7963L3.52658 10.7807C3.584 10.4537 3.47543 10.1196 3.2368 9.88885L0.305936 7.05468C-0.292539 6.47595 0.0368898 5.46207 0.861236 5.34564L4.89824 4.77547C5.22693 4.72904 5.51117 4.52254 5.65689 4.22428L7.44666 0.56105Z" fill="url(#paint0_linear_5_219)"/>
<defs>
<linearGradient id="paint0_linear_5_219" x1="18.3452" y1="-4.77795" x2="2.84515" y2="18.722" gradientUnits="userSpaceOnUse">
<stop stop-color="#FFA01B"/>
<stop offset="1" stop-color="#EC4899"/>
</linearGradient>
</defs>
</svg>
