<svg width="118" height="113" viewBox="0 0 118 113" fill="none" xmlns="http://www.w3.org/2000/svg">
<g filter="url(#filter0_dddd_5_424)">
<g clip-path="url(#clip0_5_424)">
<path d="M14 15C14 8.37258 19.3726 3 26 3H92C98.6274 3 104 8.37258 104 15V81C104 87.6274 98.6274 93 92 93H26C19.3726 93 14 87.6274 14 81V15Z" fill="url(#paint0_radial_5_424)"/>
<path d="M14 15C14 8.37258 19.3726 3 26 3H92C98.6274 3 104 8.37258 104 15V81C104 87.6274 98.6274 93 92 93H26C19.3726 93 14 87.6274 14 81V15Z" fill="black" fill-opacity="0.38"/>
<path d="M30 77.5H88V106H30V77.5Z" fill="url(#paint1_linear_5_424)"/>
<ellipse cx="59" cy="76.9722" rx="29" ry="8.97222" fill="url(#paint2_linear_5_424)"/>
<g opacity="0.39" filter="url(#filter1_f_5_424)">
<ellipse cx="59" cy="76.9722" rx="16" ry="4.75" fill="url(#paint3_linear_5_424)"/>
</g>
<path d="M38.8713 22.1692C35.8352 26.4542 35.7036 32.707 40.0062 37.0755C40.0062 37.0755 42.2503 39.3158 44.8088 41.8698M75.065 39.9994C76.6634 38.4038 77.9937 37.0755 77.9937 37.0755C85.1397 29.8202 80.0549 17.3638 69.7413 17.3638C64.878 17.3638 60.7174 20.3621 59 24.6098C57.2826 20.3621 53.1219 17.3638 48.2586 17.3638C45.3045 17.3638 42.779 18.3861 40.8472 20.0156" stroke="url(#paint4_linear_5_424)" stroke-width="1.34767" stroke-miterlimit="10" stroke-linecap="round" stroke-linejoin="round"/>
<path d="M59 24.6099L52.98 32.4227C52.5268 33.0065 52.5891 33.8433 53.1329 34.3436C53.6941 34.86 54.916 35.1237 56.2091 34.8371C57.3533 34.5836 58.7773 33.5107 58.7773 33.5107L64.2699 29.2777C64.2699 29.2777 67.0076 29.9736 70.1631 28.9261M59.8595 38.8045L68.8205 47.7797C69.787 48.7461 69.787 50.3132 68.8205 51.2797C67.8541 52.2461 66.287 52.2461 65.3205 51.2797L64.0802 50.0236" stroke="url(#paint5_linear_5_424)" stroke-width="1.34767" stroke-miterlimit="10" stroke-linecap="round" stroke-linejoin="round"/>
<path d="M63.3595 35.3044L72.3205 44.2796C73.287 45.2461 73.287 46.8132 72.3205 47.7796C71.354 48.7461 69.787 48.7461 68.8205 47.7796" stroke="url(#paint6_linear_5_424)" stroke-width="1.34767" stroke-miterlimit="10" stroke-linecap="round" stroke-linejoin="round"/>
<path d="M70.6873 35.6681L75.8205 40.7796C76.787 41.7461 76.787 43.3131 75.8205 44.2796C74.854 45.246 73.287 45.246 72.3205 44.2796M64.27 29.2777L68.6064 33.5959M52.5188 38.0071C51.5725 37.0608 50.0452 37.0386 49.0718 37.957L44.5407 42.2322C43.5742 43.1987 43.5742 44.7656 44.5407 45.7322C45.5072 46.6986 47.0742 46.6986 48.0407 45.7322L52.4672 41.5557C53.4815 40.5987 53.5048 38.9931 52.5188 38.0071Z" stroke="url(#paint7_linear_5_424)" stroke-width="1.34767" stroke-miterlimit="10" stroke-linecap="round" stroke-linejoin="round"/>
<path d="M48.1076 45.671C47.1411 46.6374 47.1411 48.2044 48.1076 49.1709C49.074 50.1374 50.6411 50.1374 51.6075 49.1709L56.0341 44.9945C57.0483 44.0375 57.0716 42.4319 56.0856 41.4459C55.1393 40.4996 53.612 40.4774 52.6387 41.3959" stroke="url(#paint8_linear_5_424)" stroke-width="1.34767" stroke-miterlimit="10" stroke-linecap="round" stroke-linejoin="round"/>
<path d="M51.6109 49.1695C50.6445 50.136 50.6445 51.7029 51.6109 52.6695C52.5774 53.6359 54.1444 53.6359 55.1109 52.6695M59.5373 48.493C60.5516 47.5361 60.5748 45.9305 59.5889 44.9444C58.6426 43.9981 57.1153 43.9759 56.1419 44.8944" stroke="url(#paint9_linear_5_424)" stroke-width="1.34767" stroke-miterlimit="10" stroke-linecap="round" stroke-linejoin="round"/>
<path d="M56.3386 51.5062L55.3791 52.4115C54.4127 53.3779 54.4127 54.9449 55.3791 55.9114C56.3456 56.8779 57.9126 56.8779 58.8791 55.9114L63.3056 51.7349C64.3198 50.778 64.3431 49.1724 63.3572 48.1864C62.4108 47.2401 60.8836 47.2179 59.9102 48.1363L58.4839 49.4821" stroke="url(#paint10_linear_5_424)" stroke-width="1.34767" stroke-miterlimit="10" stroke-linecap="round" stroke-linejoin="round"/>
</g>
<path d="M26 3.5H92C98.3513 3.5 103.5 8.64873 103.5 15V81C103.5 87.3513 98.3513 92.5 92 92.5H26C19.6487 92.5 14.5 87.3513 14.5 81V15C14.5 8.64873 19.6487 3.5 26 3.5Z" stroke="url(#paint11_radial_5_424)"/>
<path d="M26 3.5H92C98.3513 3.5 103.5 8.64873 103.5 15V81C103.5 87.3513 98.3513 92.5 92 92.5H26C19.6487 92.5 14.5 87.3513 14.5 81V15C14.5 8.64873 19.6487 3.5 26 3.5Z" stroke="white" stroke-opacity="0.06"/>
</g>
<defs>
<filter id="filter0_dddd_5_424" x="0" y="0" width="118" height="141" filterUnits="userSpaceOnUse" color-interpolation-filters="sRGB">
<feFlood flood-opacity="0" result="BackgroundImageFix"/>
<feColorMatrix in="SourceAlpha" type="matrix" values="0 0 0 0 0 0 0 0 0 0 0 0 0 0 0 0 0 0 127 0" result="hardAlpha"/>
<feOffset dy="2"/>
<feGaussianBlur stdDeviation="2.5"/>
<feColorMatrix type="matrix" values="0 0 0 0 0.117647 0 0 0 0 0.0980392 0 0 0 0 0.14902 0 0 0 0.1 0"/>
<feBlend mode="normal" in2="BackgroundImageFix" result="effect1_dropShadow_5_424"/>
<feColorMatrix in="SourceAlpha" type="matrix" values="0 0 0 0 0 0 0 0 0 0 0 0 0 0 0 0 0 0 127 0" result="hardAlpha"/>
<feOffset dy="8"/>
<feGaussianBlur stdDeviation="4"/>
<feColorMatrix type="matrix" values="0 0 0 0 0.117647 0 0 0 0 0.0980392 0 0 0 0 0.14902 0 0 0 0.09 0"/>
<feBlend mode="normal" in2="effect1_dropShadow_5_424" result="effect2_dropShadow_5_424"/>
<feColorMatrix in="SourceAlpha" type="matrix" values="0 0 0 0 0 0 0 0 0 0 0 0 0 0 0 0 0 0 127 0" result="hardAlpha"/>
<feOffset dy="19"/>
<feGaussianBlur stdDeviation="5.5"/>
<feColorMatrix type="matrix" values="0 0 0 0 0.117647 0 0 0 0 0.0980392 0 0 0 0 0.14902 0 0 0 0.05 0"/>
<feBlend mode="normal" in2="effect2_dropShadow_5_424" result="effect3_dropShadow_5_424"/>
<feColorMatrix in="SourceAlpha" type="matrix" values="0 0 0 0 0 0 0 0 0 0 0 0 0 0 0 0 0 0 127 0" result="hardAlpha"/>
<feOffset dy="34"/>
<feGaussianBlur stdDeviation="7"/>
<feColorMatrix type="matrix" values="0 0 0 0 0.117647 0 0 0 0 0.0980392 0 0 0 0 0.14902 0 0 0 0.01 0"/>
<feBlend mode="normal" in2="effect3_dropShadow_5_424" result="effect4_dropShadow_5_424"/>
<feBlend mode="normal" in="SourceGraphic" in2="effect4_dropShadow_5_424" result="shape"/>
</filter>
<filter id="filter1_f_5_424" x="36.6" y="65.8222" width="44.8" height="22.3" filterUnits="userSpaceOnUse" color-interpolation-filters="sRGB">
<feFlood flood-opacity="0" result="BackgroundImageFix"/>
<feBlend mode="normal" in="SourceGraphic" in2="BackgroundImageFix" result="shape"/>
<feGaussianBlur stdDeviation="3.2" result="effect1_foregroundBlur_5_424"/>
</filter>
<radialGradient id="paint0_radial_5_424" cx="0" cy="0" r="1" gradientTransform="matrix(-61.0509 -59.7273 27.2338 -100.814 120.051 93)" gradientUnits="userSpaceOnUse">
<stop stop-color="#EC4899" stop-opacity="0.52"/>
<stop offset="1" stop-opacity="0"/>
</radialGradient>
<linearGradient id="paint1_linear_5_424" x1="59" y1="85.6429" x2="59" y2="99.25" gradientUnits="userSpaceOnUse">
<stop stop-color="#7B2B52" stop-opacity="0.52"/>
<stop offset="1" stop-color="#EC4899" stop-opacity="0"/>
</linearGradient>
<linearGradient id="paint2_linear_5_424" x1="32.175" y1="84.9351" x2="36.5276" y2="54.0677" gradientUnits="userSpaceOnUse">
<stop stop-color="#EC4899"/>
<stop offset="1" stop-color="#FFA01B"/>
</linearGradient>
<linearGradient id="paint3_linear_5_424" x1="43" y1="78.1597" x2="75.0502" y2="77.3316" gradientUnits="userSpaceOnUse">
<stop stop-color="#3D1428"/>
<stop offset="1" stop-color="#4B152F"/>
</linearGradient>
<linearGradient id="paint4_linear_5_424" x1="66.3512" y1="30.2617" x2="94.0716" y2="31.4204" gradientUnits="userSpaceOnUse">
<stop stop-color="#EC4899"/>
<stop offset="1" stop-color="#FFA01B"/>
</linearGradient>
<linearGradient id="paint5_linear_5_424" x1="64.2992" y1="39.0281" x2="75.1706" y2="39.1873" gradientUnits="userSpaceOnUse">
<stop stop-color="#EC4899"/>
<stop offset="1" stop-color="#FFA01B"/>
</linearGradient>
<linearGradient id="paint6_linear_5_424" x1="69.797" y1="42.2518" x2="75.8189" y2="42.3532" gradientUnits="userSpaceOnUse">
<stop stop-color="#EC4899"/>
<stop offset="1" stop-color="#FFA01B"/>
</linearGradient>
<linearGradient id="paint7_linear_5_424" x1="65.569" y1="38.3195" x2="85.8843" y2="39.2074" gradientUnits="userSpaceOnUse">
<stop stop-color="#EC4899"/>
<stop offset="1" stop-color="#FFA01B"/>
</linearGradient>
<linearGradient id="paint8_linear_5_424" x1="53.6485" y1="45.55" x2="59.5081" y2="45.6881" gradientUnits="userSpaceOnUse">
<stop stop-color="#EC4899"/>
<stop offset="1" stop-color="#FFA01B"/>
</linearGradient>
<linearGradient id="paint9_linear_5_424" x1="57.1518" y1="49.0485" x2="63.0114" y2="49.1866" gradientUnits="userSpaceOnUse">
<stop stop-color="#EC4899"/>
<stop offset="1" stop-color="#FFA01B"/>
</linearGradient>
<linearGradient id="paint10_linear_5_424" x1="60.9201" y1="52.2905" x2="66.7797" y2="52.4286" gradientUnits="userSpaceOnUse">
<stop stop-color="#EC4899"/>
<stop offset="1" stop-color="#FFA01B"/>
</linearGradient>
<radialGradient id="paint11_radial_5_424" cx="0" cy="0" r="1" gradientTransform="matrix(-19.4904 -38.7273 38.7273 -70.5851 104.86 94.9091)" gradientUnits="userSpaceOnUse">
<stop stop-color="#EC4899"/>
<stop offset="1" stop-color="#999999" stop-opacity="0"/>
</radialGradient>
<clipPath id="clip0_5_424">
<path d="M14 15C14 8.37258 19.3726 3 26 3H92C98.6274 3 104 8.37258 104 15V81C104 87.6274 98.6274 93 92 93H26C19.3726 93 14 87.6274 14 81V15Z" fill="white"/>
</clipPath>
</defs>
</svg>
