<svg width="118" height="113" viewBox="0 0 118 113" fill="none" xmlns="http://www.w3.org/2000/svg">
<g filter="url(#filter0_dddd_5_422)">
<g clip-path="url(#clip0_5_422)">
<path d="M14 15C14 8.37258 19.3726 3 26 3H92C98.6274 3 104 8.37258 104 15V81C104 87.6274 98.6274 93 92 93H26C19.3726 93 14 87.6274 14 81V15Z" fill="url(#paint0_radial_5_422)"/>
<path d="M14 15C14 8.37258 19.3726 3 26 3H92C98.6274 3 104 8.37258 104 15V81C104 87.6274 98.6274 93 92 93H26C19.3726 93 14 87.6274 14 81V15Z" fill="black" fill-opacity="0.38"/>
<path d="M30 77.5H88V106H30V77.5Z" fill="url(#paint1_linear_5_422)"/>
<ellipse cx="59" cy="76.9722" rx="29" ry="8.97222" fill="url(#paint2_linear_5_422)"/>
<g opacity="0.39" filter="url(#filter1_f_5_422)">
<ellipse cx="59" cy="76.9722" rx="16" ry="4.75" fill="url(#paint3_linear_5_422)"/>
</g>
<g clip-path="url(#clip1_5_422)">
<mask id="mask0_5_422" style="mask-type:luminance" maskUnits="userSpaceOnUse" x="32" y="14" width="46" height="46">
<path d="M32 14.0001H77.9999V60H32V14.0001Z" fill="white"/>
</mask>
<g mask="url(#mask0_5_422)">
<path d="M69.2522 55.3973C62.5653 59.7518 53.5218 58.9951 47.654 53.1273C40.9174 46.3907 40.9174 35.4686 47.654 28.7322C54.3905 21.9956 65.3125 21.9956 72.0491 28.7322C77.9115 34.5945 78.6722 43.6266 74.3313 50.3116" stroke="url(#paint4_linear_5_422)" stroke-width="1.71874" stroke-miterlimit="10" stroke-linecap="round" stroke-linejoin="round"/>
<path d="M59.8515 53.9686C52.6502 53.9686 46.8126 48.131 46.8126 40.9297C46.8126 33.7285 52.6502 27.8908 59.8515 27.8908C67.0527 27.8908 72.8903 33.7285 72.8903 40.9297C72.8903 48.131 67.0527 53.9686 59.8515 53.9686Z" stroke="url(#paint5_linear_5_422)" stroke-width="1.71874" stroke-miterlimit="10" stroke-linecap="round" stroke-linejoin="round"/>
<path d="M56.6034 20.133H63.0721C64.263 20.133 65.2284 19.1676 65.2284 17.9768C65.2284 16.7859 64.263 15.8205 63.0721 15.8205H56.6034C55.4125 15.8205 54.4471 16.7859 54.4471 17.9768C54.4471 19.1676 55.4125 20.133 56.6034 20.133Z" stroke="url(#paint6_linear_5_422)" stroke-width="1.71874" stroke-miterlimit="10" stroke-linecap="round" stroke-linejoin="round"/>
<path d="M62.9112 23.6797V20.1331H56.7646V23.6797" stroke="url(#paint7_linear_5_422)" stroke-width="1.71874" stroke-miterlimit="10" stroke-linecap="round" stroke-linejoin="round"/>
<path d="M61.5546 39.2268L66.1701 34.6113" stroke="url(#paint8_linear_5_422)" stroke-width="1.71874" stroke-miterlimit="10" stroke-linecap="round" stroke-linejoin="round"/>
<path d="M57.9581 40.9296C57.9581 41.9753 58.8058 42.823 59.8515 42.823C60.8972 42.823 61.7449 41.9753 61.7449 40.9296C61.7449 39.8839 60.8972 39.0363 59.8515 39.0363C58.8058 39.0363 57.9581 39.8839 57.9581 40.9296Z" stroke="url(#paint9_linear_5_422)" stroke-width="1.71874" stroke-miterlimit="10" stroke-linecap="round" stroke-linejoin="round"/>
<path d="M69.4576 40.9407H68.6252" stroke="url(#paint10_linear_5_422)" stroke-width="1.71874" stroke-miterlimit="10" stroke-linecap="round" stroke-linejoin="round"/>
<path d="M50.2456 40.9188H51.0779" stroke="url(#paint11_linear_5_422)" stroke-width="1.71874" stroke-miterlimit="10" stroke-linecap="round" stroke-linejoin="round"/>
<path d="M59.8625 31.3238V32.1561" stroke="url(#paint12_linear_5_422)" stroke-width="1.71874" stroke-miterlimit="10" stroke-linecap="round" stroke-linejoin="round"/>
<path d="M59.8405 50.5358V49.7035" stroke="url(#paint13_linear_5_422)" stroke-width="1.71874" stroke-miterlimit="10" stroke-linecap="round" stroke-linejoin="round"/>
<path d="M58.4305 39.5087L55.9913 37.0695" stroke="url(#paint14_linear_5_422)" stroke-width="1.71874" stroke-miterlimit="10" stroke-linecap="round" stroke-linejoin="round"/>
<path d="M61.1904 39.5908L66.0396 34.7418" stroke="url(#paint15_linear_5_422)" stroke-width="1.71874" stroke-miterlimit="10" stroke-linecap="round" stroke-linejoin="round"/>
<path d="M43.3886 46.4734H36.4921" stroke="url(#paint16_linear_5_422)" stroke-width="1.71874" stroke-miterlimit="10" stroke-linecap="round" stroke-linejoin="round"/>
<path d="M42.6015 41.2233H37.7499" stroke="url(#paint17_linear_5_422)" stroke-width="1.71874" stroke-miterlimit="10" stroke-linecap="round" stroke-linejoin="round"/>
<path d="M43.149 35.9731H32.8984" stroke="url(#paint18_linear_5_422)" stroke-width="1.71874" stroke-miterlimit="10" stroke-linecap="round" stroke-linejoin="round"/>
<path d="M45.4251 30.7231H39.0228" stroke="url(#paint19_linear_5_422)" stroke-width="1.71874" stroke-miterlimit="10" stroke-linecap="round" stroke-linejoin="round"/>
</g>
</g>
</g>
<path d="M26 3.5H92C98.3513 3.5 103.5 8.64873 103.5 15V81C103.5 87.3513 98.3513 92.5 92 92.5H26C19.6487 92.5 14.5 87.3513 14.5 81V15C14.5 8.64873 19.6487 3.5 26 3.5Z" stroke="url(#paint20_radial_5_422)"/>
<path d="M26 3.5H92C98.3513 3.5 103.5 8.64873 103.5 15V81C103.5 87.3513 98.3513 92.5 92 92.5H26C19.6487 92.5 14.5 87.3513 14.5 81V15C14.5 8.64873 19.6487 3.5 26 3.5Z" stroke="white" stroke-opacity="0.06"/>
</g>
<defs>
<filter id="filter0_dddd_5_422" x="0" y="0" width="118" height="141" filterUnits="userSpaceOnUse" color-interpolation-filters="sRGB">
<feFlood flood-opacity="0" result="BackgroundImageFix"/>
<feColorMatrix in="SourceAlpha" type="matrix" values="0 0 0 0 0 0 0 0 0 0 0 0 0 0 0 0 0 0 127 0" result="hardAlpha"/>
<feOffset dy="2"/>
<feGaussianBlur stdDeviation="2.5"/>
<feColorMatrix type="matrix" values="0 0 0 0 0.117647 0 0 0 0 0.0980392 0 0 0 0 0.14902 0 0 0 0.1 0"/>
<feBlend mode="normal" in2="BackgroundImageFix" result="effect1_dropShadow_5_422"/>
<feColorMatrix in="SourceAlpha" type="matrix" values="0 0 0 0 0 0 0 0 0 0 0 0 0 0 0 0 0 0 127 0" result="hardAlpha"/>
<feOffset dy="8"/>
<feGaussianBlur stdDeviation="4"/>
<feColorMatrix type="matrix" values="0 0 0 0 0.117647 0 0 0 0 0.0980392 0 0 0 0 0.14902 0 0 0 0.09 0"/>
<feBlend mode="normal" in2="effect1_dropShadow_5_422" result="effect2_dropShadow_5_422"/>
<feColorMatrix in="SourceAlpha" type="matrix" values="0 0 0 0 0 0 0 0 0 0 0 0 0 0 0 0 0 0 127 0" result="hardAlpha"/>
<feOffset dy="19"/>
<feGaussianBlur stdDeviation="5.5"/>
<feColorMatrix type="matrix" values="0 0 0 0 0.117647 0 0 0 0 0.0980392 0 0 0 0 0.14902 0 0 0 0.05 0"/>
<feBlend mode="normal" in2="effect2_dropShadow_5_422" result="effect3_dropShadow_5_422"/>
<feColorMatrix in="SourceAlpha" type="matrix" values="0 0 0 0 0 0 0 0 0 0 0 0 0 0 0 0 0 0 127 0" result="hardAlpha"/>
<feOffset dy="34"/>
<feGaussianBlur stdDeviation="7"/>
<feColorMatrix type="matrix" values="0 0 0 0 0.117647 0 0 0 0 0.0980392 0 0 0 0 0.14902 0 0 0 0.01 0"/>
<feBlend mode="normal" in2="effect3_dropShadow_5_422" result="effect4_dropShadow_5_422"/>
<feBlend mode="normal" in="SourceGraphic" in2="effect4_dropShadow_5_422" result="shape"/>
</filter>
<filter id="filter1_f_5_422" x="36.6" y="65.8222" width="44.8" height="22.3" filterUnits="userSpaceOnUse" color-interpolation-filters="sRGB">
<feFlood flood-opacity="0" result="BackgroundImageFix"/>
<feBlend mode="normal" in="SourceGraphic" in2="BackgroundImageFix" result="shape"/>
<feGaussianBlur stdDeviation="3.2" result="effect1_foregroundBlur_5_422"/>
</filter>
<radialGradient id="paint0_radial_5_422" cx="0" cy="0" r="1" gradientTransform="matrix(-61.0509 -59.7273 27.2338 -100.814 120.051 93)" gradientUnits="userSpaceOnUse">
<stop stop-color="#EC4899" stop-opacity="0.52"/>
<stop offset="1" stop-opacity="0"/>
</radialGradient>
<linearGradient id="paint1_linear_5_422" x1="59" y1="85.6429" x2="59" y2="99.25" gradientUnits="userSpaceOnUse">
<stop stop-color="#7B2B52" stop-opacity="0.52"/>
<stop offset="1" stop-color="#EC4899" stop-opacity="0"/>
</linearGradient>
<linearGradient id="paint2_linear_5_422" x1="32.175" y1="84.9351" x2="36.5276" y2="54.0677" gradientUnits="userSpaceOnUse">
<stop stop-color="#EC4899"/>
<stop offset="1" stop-color="#FFA01B"/>
</linearGradient>
<linearGradient id="paint3_linear_5_422" x1="43" y1="78.1597" x2="75.0502" y2="77.3316" gradientUnits="userSpaceOnUse">
<stop stop-color="#3D1428"/>
<stop offset="1" stop-color="#4B152F"/>
</linearGradient>
<linearGradient id="paint4_linear_5_422" x1="65.5314" y1="40.0218" x2="86.9753" y2="39.5299" gradientUnits="userSpaceOnUse">
<stop stop-color="#EC4899"/>
<stop offset="1" stop-color="#FFA01B"/>
</linearGradient>
<linearGradient id="paint5_linear_5_422" x1="64.1447" y1="40.2435" x2="80.3538" y2="39.8716" gradientUnits="userSpaceOnUse">
<stop stop-color="#EC4899"/>
<stop offset="1" stop-color="#FFA01B"/>
</linearGradient>
<linearGradient id="paint6_linear_5_422" x1="61.6127" y1="17.8633" x2="68.2955" y2="17.48" gradientUnits="userSpaceOnUse">
<stop stop-color="#EC4899"/>
<stop offset="1" stop-color="#FFA01B"/>
</linearGradient>
<linearGradient id="paint7_linear_5_422" x1="60.8499" y1="21.8131" x2="64.6663" y2="21.6613" gradientUnits="userSpaceOnUse">
<stop stop-color="#EC4899"/>
<stop offset="1" stop-color="#FFA01B"/>
</linearGradient>
<linearGradient id="paint8_linear_5_422" x1="64.6222" y1="36.7976" x2="67.4911" y2="36.7318" gradientUnits="userSpaceOnUse">
<stop stop-color="#EC4899"/>
<stop offset="1" stop-color="#FFA01B"/>
</linearGradient>
<linearGradient id="paint9_linear_5_422" x1="60.4749" y1="40.83" x2="62.8286" y2="40.776" gradientUnits="userSpaceOnUse">
<stop stop-color="#EC4899"/>
<stop offset="1" stop-color="#FFA01B"/>
</linearGradient>
<linearGradient id="paint10_linear_5_422" x1="69.1784" y1="40.4144" x2="69.6958" y2="40.4045" gradientUnits="userSpaceOnUse">
<stop stop-color="#EC4899"/>
<stop offset="1" stop-color="#FFA01B"/>
</linearGradient>
<linearGradient id="paint11_linear_5_422" x1="50.7988" y1="40.3925" x2="51.3162" y2="40.3826" gradientUnits="userSpaceOnUse">
<stop stop-color="#EC4899"/>
<stop offset="1" stop-color="#FFA01B"/>
</linearGradient>
<linearGradient id="paint12_linear_5_422" x1="60.5272" y1="31.718" x2="61.1486" y2="31.7009" gradientUnits="userSpaceOnUse">
<stop stop-color="#EC4899"/>
<stop offset="1" stop-color="#FFA01B"/>
</linearGradient>
<linearGradient id="paint13_linear_5_422" x1="60.5051" y1="50.0977" x2="61.1265" y2="50.0806" gradientUnits="userSpaceOnUse">
<stop stop-color="#EC4899"/>
<stop offset="1" stop-color="#FFA01B"/>
</linearGradient>
<linearGradient id="paint14_linear_5_422" x1="57.6125" y1="38.2249" x2="59.1286" y2="38.1901" gradientUnits="userSpaceOnUse">
<stop stop-color="#EC4899"/>
<stop offset="1" stop-color="#FFA01B"/>
</linearGradient>
<linearGradient id="paint15_linear_5_422" x1="64.4133" y1="37.0387" x2="67.4274" y2="36.9696" gradientUnits="userSpaceOnUse">
<stop stop-color="#EC4899"/>
<stop offset="1" stop-color="#FFA01B"/>
</linearGradient>
<linearGradient id="paint16_linear_5_422" x1="41.0758" y1="45.9471" x2="45.2599" y2="45.2851" gradientUnits="userSpaceOnUse">
<stop stop-color="#EC4899"/>
<stop offset="1" stop-color="#FFA01B"/>
</linearGradient>
<linearGradient id="paint17_linear_5_422" x1="40.9744" y1="40.697" x2="43.9547" y2="40.3652" gradientUnits="userSpaceOnUse">
<stop stop-color="#EC4899"/>
<stop offset="1" stop-color="#FFA01B"/>
</linearGradient>
<linearGradient id="paint18_linear_5_422" x1="39.7113" y1="35.4468" x2="45.752" y2="34.0263" gradientUnits="userSpaceOnUse">
<stop stop-color="#EC4899"/>
<stop offset="1" stop-color="#FFA01B"/>
</linearGradient>
<linearGradient id="paint19_linear_5_422" x1="43.278" y1="30.1968" x2="47.1755" y2="29.6243" gradientUnits="userSpaceOnUse">
<stop stop-color="#EC4899"/>
<stop offset="1" stop-color="#FFA01B"/>
</linearGradient>
<radialGradient id="paint20_radial_5_422" cx="0" cy="0" r="1" gradientTransform="matrix(-19.4904 -38.7273 38.7273 -70.5851 104.86 94.9091)" gradientUnits="userSpaceOnUse">
<stop stop-color="#EC4899"/>
<stop offset="1" stop-color="#999999" stop-opacity="0"/>
</radialGradient>
<clipPath id="clip0_5_422">
<path d="M14 15C14 8.37258 19.3726 3 26 3H92C98.6274 3 104 8.37258 104 15V81C104 87.6274 98.6274 93 92 93H26C19.3726 93 14 87.6274 14 81V15Z" fill="white"/>
</clipPath>
<clipPath id="clip1_5_422">
<rect width="46" height="46" fill="white" transform="translate(32 14)"/>
</clipPath>
</defs>
</svg>
